<?xml version="1.0" encoding="UTF-8"?>
<svg id="Calque_1" data-name="Calque 1" xmlns="http://www.w3.org/2000/svg" viewBox="0 0 212.97 53.86">
  <defs>
    <style>
      .cls-1 {
        fill: #fff;
      }

      .cls-2 {
        fill: red;
      }

      .cls-3 {
        fill: #ace6b4;
      }

      .cls-4 {
        fill: #2db350;
      }

      .cls-5 {
        fill: #2e5ea7;
      }

      .cls-6 {
        fill: #307cff;
      }

      .cls-7 {
        fill: #79cff2;
      }
    </style>
  </defs>
  <circle class="cls-7" cx="48.26" cy="49.58" r="2.04"/>
  <circle cx="48.26" cy="34.92" r="2.04"/>
  <circle class="cls-4" cx="48.26" cy="20.26" r="5.6"/>
  <circle class="cls-6" cx="33.6" cy="49.58" r="4.28"/>
  <path class="cls-5" d="m25.21,34.92c0-4.64,3.76-8.39,8.39-8.39,4.64,0,8.39,3.76,8.39,8.39s-3.76,8.39-8.39,8.39c-4.64,0-8.39-3.76-8.39-8.39Z"/>
  <circle class="cls-4" cx="33.6" cy="5.6" r="5.6"/>
  <circle class="cls-2" cx="18.94" cy="49.58" r="4.28"/>
  <path class="cls-2" d="m14.66,34.92c0-2.36,1.92-4.28,4.28-4.28,2.36,0,4.28,1.92,4.28,4.28,0,2.36-1.92,4.28-4.28,4.28-2.36,0-4.28-1.92-4.28-4.28Z"/>
  <path class="cls-3" d="m43.98,5.6c0-2.36,1.92-4.28,4.28-4.28,2.36,0,4.28,1.92,4.28,4.28,0,2.36-1.92,4.28-4.28,4.28-2.36,0-4.28-1.92-4.28-4.28Z"/>
  <circle class="cls-5" cx="18.94" cy="20.26" r="8.39"/>
  <path d="m16.9,5.6c0-1.13.91-2.04,2.04-2.04,1.13,0,2.04.91,2.04,2.04,0,1.13-.91,2.04-2.04,2.04-1.13,0-2.04-.91-2.04-2.04Z"/>
  <circle class="cls-7" cx="4.28" cy="49.58" r="2.04"/>
  <path class="cls-2" d="m0,34.92c0-2.36,1.92-4.28,4.28-4.28,2.36,0,4.28,1.92,4.28,4.28,0,2.36-1.92,4.28-4.28,4.28-2.36,0-4.28-1.92-4.28-4.28Z"/>
  <circle class="cls-6" cx="4.28" cy="20.26" r="4.28"/>
  <circle class="cls-7" cx="4.28" cy="5.6" r="2.04"/>
  <path class="cls-5" d="m25.21,20.26c0-4.64,3.76-8.39,8.39-8.39,4.64,0,8.39,3.76,8.39,8.39s-3.76,8.39-8.39,8.39c-4.64,0-8.39-3.76-8.39-8.39Z"/>
  <path d="m100.3,34.87c-.18,0-.33.07-.44.21-.12.15-.17.34-.13.53,1.07,5.29,5.28,8.21,11.88,8.21s10.78-3.64,10.78-8.86-3.06-7.93-9.93-9.53c-4.46-1.05-7.22-2.46-7.22-6.24,0-3.05,2.25-4.95,5.86-4.95,3.42,0,5.72,1.79,6.48,5.04.12.49.55.84,1.05.84h2.61c.24,0,.39-.14.45-.22.12-.14.16-.33.12-.51-1.08-5.18-4.78-8.04-10.44-8.04-5.2,0-10.46,2.98-10.46,8.67,0,4.63,2.8,7.18,9.65,8.83,5.39,1.27,7.5,3.17,7.5,6.8,0,3.11-2.66,5.27-6.46,5.27s-6.43-1.96-7.54-5.37c-.13-.41-.55-.7-1.01-.7h-2.75Z"/>
  <path d="m94.55,42.63l-10.26-29.73c-.18-.53-.68-.88-1.24-.88h-3.95c-.55,0-1.05.35-1.24.87l-10.57,29.74c-.04.12-.03.26.05.37s.2.17.33.17h3.16c.34,0,.63-.21.74-.53l2.97-9.14c.19-.58.72-.96,1.33-.96h10.02c.61,0,1.14.39,1.33.96l2.97,9.14c.1.32.4.53.73.53h3.26c.13,0,.25-.06.33-.17s.1-.24.05-.37Zm-9.13-13.46c-.15.21-.4.34-.67.34h-7.76c-.26,0-.52-.13-.67-.34-.15-.22-.2-.49-.11-.75l4.05-12.12c.1-.31.39-.52.72-.52h0c.33,0,.62.22.72.54l3.84,12.11c.08.25.03.53-.12.74Z"/>
  <path d="m155.56,42.63l-10.35-29.97c-.13-.39-.5-.65-.91-.65h-4.45c-.41,0-.77.26-.9.64l-10.65,29.97c-.04.13-.03.26.05.37s.2.17.33.17h3.16c.34,0,.63-.21.73-.53l2.97-9.14c.19-.58.72-.96,1.33-.96h10.02c.61,0,1.14.39,1.33.96l2.97,9.14c.1.32.4.53.73.53h3.26c.13,0,.25-.06.33-.17s.1-.24.05-.37Zm-9.13-13.47c-.15.21-.41.34-.67.34h-7.76c-.27,0-.52-.13-.67-.35s-.2-.49-.11-.75l4.05-12.11c.1-.31.4-.52.72-.52h0c.33,0,.62.22.72.53l3.84,12.12c.08.25.03.53-.12.74Z"/>
  <path d="m177.43,12.19c-1.44-.18-2.57-.18-4.27-.18h-8.42c-.82,0-1.49.67-1.49,1.49v28.91c0,.42.34.75.75.75h2.53c.42,0,.76-.34.76-.75v-10.04c0-1.05.85-1.9,1.9-1.9h3.97c1.7,0,2.83,0,4.27-.18,3.84-.5,7.94-3.15,7.94-9.05,0-5.09-2.89-8.39-7.94-9.05Zm-.81,14.97c-.8.13-1.85.2-3.32.2h-4.07c-1.07,0-1.93-.87-1.93-1.93v-8.36c0-1.07.87-1.93,1.93-1.93h4.07c1.48,0,2.54.06,3.32.19,2.82.54,4.44,2.69,4.44,5.92s-1.61,5.38-4.43,5.92Z"/>
  <path class="cls-1" d="m209.57,5.6h-9.47c-1.87,0-3.4,1.53-3.4,3.4v9.47c0,1.87,1.53,3.4,3.4,3.4h9.47c1.87,0,3.4-1.53,3.4-3.4v-9.47c0-1.87-1.53-3.4-3.4-3.4Z"/>
  <g>
    <path class="cls-2" d="m200.1,5.6c-1.87,0-3.4,1.53-3.4,3.4v4.98l3.77-1.5c.03-.71.52-1.29,1.17-1.47l.87-5.41h-2.41Z"/>
    <path class="cls-2" d="m209.57,5.6h-5.75l-.9,5.61c.43.28.72.77.72,1.33,0,.03,0,.06,0,.09l4.85,2.72c.27-.21.61-.34.98-.34.88,0,1.58.71,1.58,1.58s-.71,1.58-1.58,1.58-1.58-.71-1.58-1.58c0-.04,0-.07,0-.1l-4.84-2.72c-.27.22-.62.35-.99.35-.43,0-.82-.17-1.1-.45l-4.25,1.69v3.11c0,1.87,1.53,3.4,3.4,3.4h9.47c1.87,0,3.4-1.53,3.4-3.4v-9.47c0-1.87-1.53-3.4-3.4-3.4Z"/>
  </g>
</svg>