<?xml version="1.0" encoding="UTF-8"?>
<svg id="chosen_finb" data-name="chosen finb" xmlns="http://www.w3.org/2000/svg" xmlns:xlink="http://www.w3.org/1999/xlink" viewBox="0 0 431.98 233.9">
  <defs>
    <style>
      .cls-1 {
        fill: #fff;
      }

      .cls-2 {
        fill: #231f20;
      }

      .cls-3 {
        fill: url(#Nouvelle_nuance_de_dégradé_1-2);
      }

      .cls-4 {
        fill: url(#Nouvelle_nuance_de_dégradé_1-3);
      }

      .cls-5 {
        fill: url(#Nouvelle_nuance_de_dégradé_1-4);
      }

      .cls-6 {
        fill: url(#Nouvelle_nuance_de_dégradé_1);
      }
    </style>
    <radialGradient id="Nouvelle_nuance_de_dégradé_1" data-name="Nouvelle nuance de dégradé 1" cx="1514.84" cy="318.02" fx="1514.84" fy="318.02" r="53.68" gradientTransform="translate(1586.91 -266) rotate(-180) scale(1 -1)" gradientUnits="userSpaceOnUse">
      <stop offset="0" stop-color="#f69679"/>
      <stop offset="1" stop-color="#ed1c24"/>
    </radialGradient>
    <radialGradient id="Nouvelle_nuance_de_dégradé_1-2" data-name="Nouvelle nuance de dégradé 1" cx="1514.85" cy="318.02" fx="1514.85" fy="318.02" r="53.67" xlink:href="#Nouvelle_nuance_de_dégradé_1"/>
    <radialGradient id="Nouvelle_nuance_de_dégradé_1-3" data-name="Nouvelle nuance de dégradé 1" cx="1514.84" cy="318.02" fx="1514.84" fy="318.02" r="53.68" xlink:href="#Nouvelle_nuance_de_dégradé_1"/>
    <radialGradient id="Nouvelle_nuance_de_dégradé_1-4" data-name="Nouvelle nuance de dégradé 1" cx="1514.84" cy="318.02" fx="1514.84" fy="318.02" r="53.68" xlink:href="#Nouvelle_nuance_de_dégradé_1"/>
  </defs>
  <path class="cls-1" d="m14.27,0C6.4,0,0,6.4,0,14.27v124.27c0,7.87,6.4,14.27,14.27,14.27h170.37c7.87,0,14.27-6.4,14.27-14.27V14.27c0-7.87-6.4-14.27-14.27-14.27H14.27Z"/>
  <g>
    <g>
      <path class="cls-6" d="m62.54,51.64c.17-4.26,3.12-7.79,7.08-8.85l5.73-35.67H14.27c-3.93,0-7.14,3.22-7.14,7.14v59.48s55.42-22.11,55.42-22.11ZM27.98,28.89h7.88v-7.88h7.13v7.88h7.89v7.13h-7.89v7.88h-7.13v-7.88h-7.88v-7.13Z"/>
      <path class="cls-3" d="m164.41,113.63c1.06-.37,1.87-1.07,2.43-2.11.43-.73.66-1.56.66-2.47,0-1.95-.69-3.24-2.08-3.88-1.38-.64-3.48-.96-6.31-.96h-6.32v9.97h7.12c1.94,0,3.44-.18,4.49-.55Z"/>
      <path class="cls-4" d="m166.99,121.04c-1.36-.87-3.4-1.31-6.1-1.31h-8.1v11.2h8.36c5.26,0,7.89-1.89,7.89-5.68,0-1.93-.68-3.34-2.04-4.21Z"/>
      <path class="cls-5" d="m184.64,7.12h-101.41l-5.93,36.9c2.61,1.71,4.33,4.65,4.33,8,0,.18-.02.36-.03.54l44.94,23.19c1.63-1.28,3.67-2.05,5.9-2.05,5.28,0,9.56,4.28,9.56,9.56s-4.28,9.56-9.56,9.56-9.56-4.28-9.56-9.56c0-.21.02-.42.03-.63l-44.88-23.15c-1.64,1.31-3.71,2.1-5.97,2.1-2.59,0-4.94-1.04-6.66-2.71L7.13,82.12v56.42c0,3.93,3.22,7.14,7.14,7.14h170.37c3.93,0,7.14-3.22,7.14-7.14V14.27c0-3.93-3.21-7.14-7.14-7.14Zm-64.77,124.4c-1.2,1.84-2.95,3.29-5.26,4.33-2.31,1.04-5.05,1.56-8.21,1.56-3.8,0-6.92-.71-9.39-2.13-1.74-1.03-3.16-2.4-4.25-4.11-1.09-1.72-1.64-3.38-1.64-5,0-.94.33-1.74.98-2.42.65-.67,1.49-1,2.5-1,.82,0,1.51.26,2.08.78.57.53,1.05,1.3,1.46,2.33.49,1.23,1.02,2.25,1.58,3.06.57.82,1.37,1.5,2.4,2.03,1.03.54,2.38.8,4.06.8,2.3,0,4.17-.53,5.62-1.61,1.44-1.07,2.16-2.41,2.16-4.02,0-1.27-.39-2.31-1.16-3.11-.78-.79-1.79-1.4-3.02-1.82-1.23-.42-2.88-.87-4.94-1.34-2.76-.64-5.07-1.4-6.93-2.27-1.86-.86-3.33-2.04-4.42-3.54-1.09-1.49-1.64-3.35-1.64-5.57s.57-3.99,1.73-5.64c1.15-1.64,2.82-2.91,5.01-3.79,2.19-.88,4.75-1.32,7.71-1.32,2.36,0,4.4.29,6.12.88,1.72.59,3.15,1.37,4.29,2.34,1.13.97,1.97,1.99,2.49,3.06.52,1.07.78,2.11.78,3.12,0,.93-.33,1.77-.98,2.52-.66.74-1.48,1.11-2.46,1.11-.89,0-1.57-.22-2.03-.66-.47-.45-.97-1.17-1.52-2.18-.7-1.45-1.54-2.59-2.52-3.4-.98-.82-2.55-1.22-4.72-1.22-2.01,0-3.63.44-4.86,1.33-1.23.88-1.85,1.94-1.85,3.18,0,.77.21,1.43.63,2,.42.56.99,1.04,1.73,1.44.73.4,1.48.72,2.23.94.74.23,1.99.56,3.72,1,2.17.51,4.13,1.07,5.89,1.68,1.76.61,3.26,1.36,4.49,2.22,1.23.87,2.2,1.98,2.89,3.32.69,1.33,1.04,2.98,1.04,4.91,0,2.31-.6,4.39-1.8,6.23Zm16.53,1.16c0,1.58-.37,2.77-1.09,3.56-.73.78-1.68,1.18-2.85,1.18s-2.05-.4-2.78-1.19c-.73-.79-1.09-1.98-1.09-3.54v-30.78c0-1.57.36-2.75,1.08-3.53.72-.79,1.64-1.18,2.79-1.18s2.12.39,2.85,1.16c.72.78,1.09,1.96,1.09,3.55v30.78Zm38.9-1.03c-1.11,1.72-2.6,2.99-4.47,3.81-1.17.49-2.52.84-4.04,1.04-1.52.2-3.3.3-5.33.3h-11.75c-1.7,0-2.91-.38-3.63-1.14-.73-.76-1.09-1.97-1.09-3.63v-28.91c0-1.7.37-2.92,1.12-3.66.74-.74,1.95-1.11,3.6-1.11h12.47c1.83,0,3.42.11,4.77.34,1.35.23,2.55.67,3.62,1.32.91.54,1.72,1.23,2.42,2.06.7.83,1.23,1.75,1.61,2.76.37,1,.55,2.07.55,3.19,0,3.85-1.93,6.67-5.79,8.46,5.07,1.61,7.61,4.73,7.61,9.37,0,2.15-.55,4.08-1.66,5.8Z"/>
    </g>
    <g>
      <path class="cls-2" d="m108.23,164.66c-1.43-1.04-3.25-1.55-5.47-1.55-.9,0-1.79.09-2.66.27-.87.18-1.64.48-2.32.9-.68.42-1.22.98-1.62,1.69-.41.71-.61,1.58-.61,2.64,0,.99.29,1.8.88,2.41.58.62,1.37,1.12,2.34,1.51.97.39,2.08.71,3.31.97,1.23.26,2.48.53,3.76.83,1.27.3,2.53.65,3.76,1.06,1.23.41,2.33.95,3.31,1.65.97.69,1.75,1.56,2.34,2.61.58,1.05.88,2.37.88,3.97,0,1.71-.38,3.18-1.15,4.39-.76,1.22-1.75,2.21-2.95,2.97s-2.54,1.32-4.03,1.67c-1.48.35-2.96.52-4.43.52-1.8,0-3.5-.23-5.1-.68-1.6-.45-3.01-1.13-4.23-2.05-1.21-.92-2.17-2.09-2.88-3.51-.71-1.42-1.06-3.11-1.06-5.06h4.06c0,1.35.26,2.51.79,3.49.52.97,1.21,1.78,2.07,2.41.85.63,1.85,1.09,2.99,1.39,1.14.3,2.31.45,3.51.45.96,0,1.93-.09,2.9-.27.97-.18,1.85-.49,2.63-.92.78-.44,1.41-1.03,1.89-1.78.48-.75.72-1.71.72-2.89,0-1.11-.29-2.01-.88-2.71s-1.37-1.25-2.34-1.69c-.97-.44-2.08-.79-3.31-1.06-1.23-.27-2.48-.55-3.76-.83-1.28-.29-2.53-.62-3.76-.99-1.23-.38-2.33-.87-3.31-1.49-.97-.62-1.75-1.41-2.34-2.39-.58-.98-.88-2.2-.88-3.67,0-1.62.33-3.03.98-4.22.66-1.19,1.53-2.16,2.62-2.93,1.09-.77,2.33-1.34,3.73-1.71,1.39-.37,2.83-.56,4.3-.56,1.65,0,3.18.2,4.59.59,1.41.39,2.65,1.01,3.71,1.86,1.06.85,1.9,1.91,2.52,3.18.62,1.28.95,2.8,1.01,4.57h-4.05c-.24-2.31-1.07-3.98-2.5-5.02Z"/>
      <path class="cls-2" d="m139.65,192.42l-4.73-18.48h-.09l-4.68,18.48h-4.14l-7.47-23.25h4.23l5.26,19.02h.09l4.68-19.02h4.18l4.86,19.02h.09l5.22-19.02h3.96l-7.42,23.25h-4.05Z"/>
      <path class="cls-2" d="m155.02,164.99v-4.69h3.81v4.69h-3.81Zm3.81,4.17v23.26h-3.81v-23.26h3.81Z"/>
      <path class="cls-2" d="m167.66,187.25c.36.58.84,1.05,1.42,1.39.59.35,1.25.59,1.99.74.74.15,1.5.22,2.28.22.6,0,1.24-.04,1.9-.13.66-.09,1.27-.26,1.83-.5.56-.24,1.02-.59,1.38-1.06.36-.47.54-1.06.54-1.78,0-.99-.38-1.74-1.13-2.25-.75-.51-1.69-.92-2.82-1.24s-2.35-.6-3.68-.86c-1.32-.26-2.55-.62-3.68-1.08-1.13-.46-2.07-1.12-2.82-1.96-.75-.84-1.13-2.01-1.13-3.52,0-1.17.26-2.18.79-3.02.53-.84,1.2-1.52,2.03-2.05.83-.53,1.76-.92,2.79-1.17,1.04-.25,2.07-.38,3.09-.38,1.32,0,2.54.11,3.65.34,1.11.23,2.1.62,2.95,1.17.86.56,1.54,1.31,2.05,2.26.51.95.81,2.13.9,3.54h-3.81c-.06-.75-.26-1.38-.59-1.88-.33-.5-.75-.9-1.26-1.2-.51-.3-1.08-.52-1.69-.66-.62-.14-1.24-.2-1.87-.2-.57,0-1.15.05-1.74.14-.59.09-1.12.25-1.6.47-.48.22-.87.53-1.17.9s-.45.86-.45,1.46c0,.66.23,1.21.7,1.64.47.44,1.06.8,1.78,1.08.72.29,1.53.53,2.44.72s1.8.4,2.71.61c.96.21,1.9.47,2.82.77.92.3,1.73.7,2.44,1.19s1.28,1.12,1.71,1.87c.44.75.65,1.68.65,2.79,0,1.41-.29,2.58-.88,3.51-.59.93-1.35,1.68-2.3,2.25-.95.57-2.02.97-3.21,1.19-1.19.22-2.37.34-3.54.34-1.29,0-2.53-.13-3.7-.4-1.17-.27-2.21-.71-3.11-1.32-.9-.61-1.62-1.42-2.17-2.42-.54-1-.84-2.22-.9-3.66h3.81c.03.84.23,1.55.59,2.14Z"/>
      <path class="cls-2" d="m190.16,187.25c.36.58.84,1.05,1.42,1.39.59.35,1.25.59,1.99.74.74.15,1.5.22,2.28.22.6,0,1.24-.04,1.9-.13.66-.09,1.27-.26,1.83-.5.56-.24,1.02-.59,1.38-1.06.36-.47.54-1.06.54-1.78,0-.99-.38-1.74-1.13-2.25-.75-.51-1.69-.92-2.82-1.24s-2.35-.6-3.68-.86c-1.32-.26-2.55-.62-3.68-1.08-1.13-.46-2.07-1.12-2.82-1.96-.75-.84-1.13-2.01-1.13-3.52,0-1.17.26-2.18.79-3.02.53-.84,1.2-1.52,2.03-2.05.83-.53,1.76-.92,2.79-1.17,1.04-.25,2.07-.38,3.09-.38,1.32,0,2.54.11,3.65.34,1.11.23,2.1.62,2.95,1.17.86.56,1.54,1.31,2.05,2.26.51.95.81,2.13.9,3.54h-3.81c-.06-.75-.26-1.38-.59-1.88-.33-.5-.75-.9-1.26-1.2-.51-.3-1.08-.52-1.69-.66-.62-.14-1.24-.2-1.87-.2-.57,0-1.15.05-1.74.14-.59.09-1.12.25-1.6.47-.48.22-.87.53-1.17.9s-.45.86-.45,1.46c0,.66.23,1.21.7,1.64.47.44,1.06.8,1.78,1.08.72.29,1.53.53,2.44.72s1.8.4,2.71.61c.96.21,1.9.47,2.82.77.92.3,1.73.7,2.44,1.19s1.28,1.12,1.71,1.87c.44.75.65,1.68.65,2.79,0,1.41-.29,2.58-.88,3.51-.59.93-1.35,1.68-2.3,2.25-.95.57-2.02.97-3.21,1.19-1.19.22-2.37.34-3.54.34-1.29,0-2.53-.13-3.7-.4-1.17-.27-2.21-.71-3.11-1.32-.9-.61-1.62-1.42-2.17-2.42-.54-1-.84-2.22-.9-3.66h3.81c.03.84.23,1.55.59,2.14Z"/>
      <path class="cls-2" d="m227.33,160.3v32.12h-4.25v-32.12h4.25Z"/>
      <path class="cls-2" d="m237.51,169.15v3.69h.1c1.59-2.82,4.11-4.23,7.56-4.23,1.53,0,2.8.21,3.82.63,1.02.42,1.84,1,2.47,1.75s1.07,1.64,1.33,2.68c.26,1.04.38,2.18.38,3.44v15.3h-3.81v-15.76c0-1.44-.42-2.58-1.26-3.42-.84-.84-2-1.26-3.47-1.26-1.17,0-2.19.18-3.04.54-.86.36-1.57.87-2.14,1.53-.57.66-1,1.43-1.29,2.32-.29.88-.43,1.85-.43,2.9v13.14h-3.81v-23.27h3.59Z"/>
      <path class="cls-2" d="m261.84,187.25c.36.58.84,1.05,1.42,1.39.59.35,1.25.59,1.99.74.74.15,1.5.22,2.28.22.6,0,1.24-.04,1.9-.13.66-.09,1.27-.26,1.83-.5.56-.24,1.02-.59,1.38-1.06.36-.47.54-1.06.54-1.78,0-.99-.37-1.74-1.13-2.25-.75-.51-1.69-.92-2.82-1.24-1.13-.32-2.35-.6-3.68-.86-1.32-.26-2.55-.62-3.68-1.08-1.13-.46-2.07-1.12-2.82-1.96-.75-.84-1.13-2.01-1.13-3.52,0-1.17.26-2.18.79-3.02.53-.84,1.2-1.52,2.03-2.05.83-.53,1.76-.92,2.79-1.17,1.04-.25,2.06-.38,3.09-.38,1.32,0,2.54.11,3.65.34,1.11.23,2.1.62,2.95,1.17.86.56,1.54,1.31,2.05,2.26.51.95.81,2.13.9,3.54h-3.81c-.06-.75-.26-1.38-.59-1.88-.33-.5-.75-.9-1.26-1.2-.51-.3-1.07-.52-1.69-.66-.62-.14-1.24-.2-1.87-.2-.57,0-1.15.05-1.74.14-.59.09-1.12.25-1.6.47-.48.22-.87.53-1.17.9s-.45.86-.45,1.46c0,.66.23,1.21.7,1.64.47.44,1.06.8,1.78,1.08.72.29,1.53.53,2.44.72.9.2,1.8.4,2.71.61.96.21,1.9.47,2.82.77.92.3,1.73.7,2.44,1.19.71.5,1.28,1.12,1.71,1.87.44.75.65,1.68.65,2.79,0,1.41-.29,2.58-.88,3.51-.59.93-1.36,1.68-2.3,2.25-.95.57-2.02.97-3.21,1.19-1.19.22-2.37.34-3.54.34-1.29,0-2.53-.13-3.7-.4-1.17-.27-2.21-.71-3.12-1.32-.9-.61-1.62-1.42-2.17-2.42-.54-1-.84-2.22-.9-3.66h3.81c.03.84.23,1.55.59,2.14Z"/>
      <path class="cls-2" d="m291.38,169.17v3.37h-4.62v14.43c0,.45.04.81.11,1.08.07.27.22.48.43.63.21.15.5.25.87.29.37.04.86.07,1.46.07h1.75v3.37h-2.92c-.99,0-1.84-.07-2.54-.2-.7-.13-1.27-.38-1.71-.74-.44-.36-.76-.87-.97-1.53-.21-.66-.31-1.53-.31-2.61v-14.79s-3.95,0-3.95,0v-3.37h3.96v-7h3.81v7h4.62Z"/>
      <path class="cls-2" d="m295.87,164.99v-4.69h3.81v4.69h-3.81Zm3.81,4.17v23.26h-3.81v-23.26h3.81Z"/>
      <path class="cls-2" d="m315.54,169.17v3.37h-4.62v14.43c0,.45.04.81.11,1.08.07.27.22.48.43.63.21.15.5.25.87.29.37.04.86.07,1.46.07h1.75v3.37h-2.92c-.99,0-1.84-.07-2.54-.2-.71-.13-1.27-.38-1.71-.74-.44-.36-.76-.87-.97-1.53-.21-.66-.31-1.53-.31-2.61v-14.79s-3.95,0-3.95,0v-3.37h3.96v-7h3.81v7h4.62Z"/>
      <path class="cls-2" d="m335.47,192.43l-.03-3.69h-.1c-.81,1.44-1.84,2.5-3.1,3.17-1.26.67-2.74,1.01-4.45,1.01-1.53,0-2.8-.2-3.82-.61-1.02-.4-1.85-.98-2.47-1.73-.63-.75-1.07-1.64-1.33-2.68-.26-1.03-.38-2.18-.38-3.44v-15.29h3.81v15.76c0,1.44.42,2.58,1.26,3.42.84.84,2,1.26,3.47,1.26,1.17,0,2.18-.18,3.04-.54.86-.36,1.57-.87,2.14-1.53.57-.66,1-1.43,1.29-2.32.29-.88.43-1.85.43-2.9v-13.14h3.81v23.25h-3.56Z"/>
      <path class="cls-2" d="m354.74,169.17v3.37h-4.62v14.43c0,.45.04.81.11,1.08.07.27.22.48.43.63.21.15.5.25.87.29.37.04.86.07,1.46.07h1.75v3.37h-2.92c-.99,0-1.84-.07-2.54-.2-.71-.13-1.27-.38-1.71-.74-.44-.36-.76-.87-.97-1.53-.21-.66-.31-1.53-.31-2.61v-14.79s-3.95,0-3.95,0v-3.37h3.96v-7h3.81v7h4.62Z"/>
      <path class="cls-2" d="m375.44,190.94c-1.74,1.32-3.93,1.98-6.56,1.98-1.86,0-3.47-.3-4.84-.9-1.36-.6-2.51-1.44-3.44-2.52-.93-1.08-1.62-2.37-2.09-3.87-.46-1.5-.73-3.14-.79-4.91,0-1.77.27-3.39.81-4.86.54-1.47,1.29-2.75,2.27-3.83.97-1.08,2.13-1.92,3.46-2.52,1.33-.6,2.79-.9,4.38-.9,2.07,0,3.78.43,5.15,1.28,1.36.85,2.46,1.94,3.28,3.26s1.39,2.76,1.71,4.32c.31,1.56.44,3.04.38,4.45h-17.37c-.03,1.03.09,2,.36,2.92s.7,1.73,1.3,2.44c.6.71,1.36,1.27,2.29,1.7s2.02.63,3.28.63c1.62,0,2.94-.38,3.97-1.13,1.03-.75,1.71-1.9,2.04-3.43h3.78c-.51,2.61-1.63,4.58-3.37,5.9Zm-.95-14.96c-.34-.81-.81-1.51-1.39-2.09-.58-.58-1.27-1.05-2.06-1.39-.79-.34-1.67-.52-2.62-.52s-1.87.17-2.67.52c-.79.34-1.47.82-2.04,1.42-.57.6-1.02,1.3-1.35,2.09-.33.79-.52,1.64-.58,2.54h13.31c-.06-.9-.26-1.75-.61-2.56Z"/>
      <path class="cls-2" d="m395.12,176.02c.48-1.49,1.2-2.78,2.16-3.87.96-1.1,2.14-1.96,3.55-2.59,1.41-.63,3.03-.95,4.86-.95s3.48.32,4.87.95c1.39.63,2.57,1.49,3.53,2.59s1.68,2.39,2.16,3.87c.48,1.49.72,3.08.72,4.79s-.24,3.3-.72,4.77c-.48,1.47-1.2,2.75-2.16,3.85s-2.13,1.95-3.53,2.57c-1.39.62-3.02.92-4.87.92s-3.45-.31-4.86-.92c-1.41-.62-2.59-1.47-3.55-2.57-.96-1.1-1.68-2.38-2.16-3.85-.48-1.47-.72-3.06-.72-4.77s.24-3.31.72-4.79Zm3.9,8.57c.37,1.1.89,2.01,1.55,2.75.66.74,1.43,1.3,2.31,1.69.88.39,1.82.59,2.8.59s1.92-.2,2.8-.59c.88-.39,1.65-.95,2.31-1.69.66-.74,1.17-1.65,1.55-2.75.37-1.1.56-2.35.56-3.76s-.19-2.67-.56-3.76c-.37-1.1-.89-2.02-1.55-2.77-.66-.75-1.43-1.32-2.31-1.71-.88-.39-1.81-.59-2.8-.59s-1.92.2-2.8.59c-.88.39-1.65.96-2.31,1.71-.66.75-1.17,1.68-1.55,2.77-.37,1.1-.56,2.35-.56,3.76s.19,2.67.56,3.76Z"/>
      <path class="cls-2" d="m419.13,172.55v-3.37h3.92v-3.47c0-1.89.55-3.33,1.65-4.31,1.1-.98,2.7-1.47,4.81-1.47.36,0,.77.03,1.24.09.47.06.88.15,1.24.27v3.33c-.33-.12-.7-.2-1.09-.25-.39-.04-.76-.07-1.09-.07-.94,0-1.66.18-2.18.54-.51.36-.77,1.05-.77,2.08v3.25h4.5v3.37h-4.5v19.87h-3.81v-19.87h-3.92Z"/>
      <path class="cls-2" d="m103.78,201.28c.69,0,1.43,0,2.23.02.79.02,1.58.06,2.36.14.78.08,1.51.19,2.18.34s1.25.37,1.73.67c1.05.63,1.94,1.5,2.68,2.61.73,1.11,1.1,2.48,1.1,4.1,0,1.71-.41,3.19-1.25,4.43-.83,1.25-2.01,2.17-3.55,2.77v.09c1.98.42,3.49,1.32,4.54,2.7s1.57,3.06,1.57,5.04c0,1.17-.21,2.31-.63,3.42-.42,1.11-1.04,2.09-1.87,2.95-.82.85-1.84,1.54-3.05,2.07-1.21.53-2.61.79-4.2.79h-15.5v-32.12h11.65Zm1.17,13.81c2.44,0,4.19-.43,5.26-1.28,1.07-.85,1.6-2.13,1.6-3.84,0-1.14-.18-2.03-.54-2.69-.36-.66-.86-1.17-1.49-1.53-.63-.36-1.36-.59-2.19-.7-.83-.1-1.71-.16-2.64-.16h-8.58v10.19h8.58Zm2.14,14.69c1.89,0,3.37-.51,4.43-1.52,1.07-1.02,1.6-2.42,1.6-4.21,0-1.04-.2-1.91-.59-2.6-.39-.69-.91-1.23-1.55-1.63-.65-.4-1.39-.69-2.23-.85-.84-.16-1.71-.25-2.61-.25h-9.77v11.06h10.72Z"/>
      <path class="cls-2" d="m122.57,205.97v-4.69h3.81v4.69h-3.81Zm3.81,4.17v23.26h-3.81v-23.26h3.81Z"/>
      <path class="cls-2" d="m131.78,217c.48-1.49,1.2-2.78,2.16-3.87s2.14-1.96,3.55-2.59c1.41-.63,3.03-.95,4.85-.95s3.48.32,4.88.95c1.39.63,2.57,1.49,3.53,2.59.96,1.1,1.68,2.39,2.16,3.87.48,1.49.72,3.08.72,4.79s-.24,3.3-.72,4.77-1.2,2.75-2.16,3.85c-.96,1.1-2.13,1.95-3.53,2.57-1.39.62-3.02.92-4.88.92s-3.45-.31-4.85-.92c-1.41-.62-2.59-1.47-3.55-2.57-.96-1.1-1.68-2.38-2.16-3.85-.48-1.47-.72-3.06-.72-4.77s.24-3.31.72-4.79Zm3.9,8.57c.37,1.1.89,2.01,1.55,2.75.66.74,1.43,1.3,2.31,1.69.88.39,1.82.59,2.8.59s1.92-.2,2.8-.59,1.65-.95,2.31-1.69c.66-.74,1.17-1.65,1.55-2.75.37-1.1.56-2.35.56-3.76s-.19-2.67-.56-3.76c-.37-1.1-.89-2.02-1.55-2.77-.66-.75-1.43-1.32-2.31-1.71-.88-.39-1.82-.59-2.8-.59s-1.92.2-2.8.59c-.88.39-1.65.96-2.31,1.71-.66.75-1.17,1.68-1.55,2.77-.37,1.1-.56,2.35-.56,3.76s.19,2.67.56,3.76Z"/>
      <path class="cls-2" d="m158.39,205.97v-4.69h3.81v4.69h-3.81Zm3.81,4.17v23.26h-3.81v-23.26h3.81Z"/>
      <path class="cls-2" d="m171.72,210.13v3.69h.1c1.59-2.82,4.11-4.23,7.56-4.23,1.53,0,2.8.21,3.82.63,1.02.42,1.84,1,2.47,1.75.63.75,1.07,1.64,1.33,2.68.25,1.04.38,2.18.38,3.44v15.3h-3.81v-15.76c0-1.44-.42-2.58-1.26-3.42-.84-.84-2-1.26-3.47-1.26-1.17,0-2.19.18-3.04.54-.86.36-1.57.87-2.14,1.53-.57.66-1,1.43-1.28,2.32-.29.88-.43,1.85-.43,2.9v13.14h-3.81v-23.27h3.59Z"/>
      <path class="cls-2" d="m190.8,213.53v-3.37h3.92v-3.47c0-1.89.55-3.33,1.65-4.31,1.1-.98,2.7-1.47,4.81-1.47.36,0,.77.03,1.24.09.47.06.88.15,1.24.27v3.33c-.33-.12-.7-.2-1.09-.25s-.76-.07-1.09-.07c-.94,0-1.66.18-2.18.54-.51.36-.77,1.05-.77,2.08v3.25h4.5v3.37h-4.5v19.87h-3.81v-19.87h-3.92Z"/>
      <path class="cls-2" d="m205.94,217c.48-1.49,1.2-2.78,2.16-3.87s2.14-1.96,3.55-2.59c1.41-.63,3.03-.95,4.85-.95s3.48.32,4.88.95c1.39.63,2.57,1.49,3.53,2.59.96,1.1,1.68,2.39,2.16,3.87.48,1.49.72,3.08.72,4.79s-.24,3.3-.72,4.77-1.2,2.75-2.16,3.85c-.96,1.1-2.13,1.95-3.53,2.57-1.39.62-3.02.92-4.88.92s-3.45-.31-4.85-.92c-1.41-.62-2.59-1.47-3.55-2.57-.96-1.1-1.68-2.38-2.16-3.85-.48-1.47-.72-3.06-.72-4.77s.24-3.31.72-4.79Zm3.9,8.57c.37,1.1.89,2.01,1.55,2.75.66.74,1.43,1.3,2.31,1.69.88.39,1.82.59,2.8.59s1.92-.2,2.8-.59,1.65-.95,2.31-1.69c.66-.74,1.17-1.65,1.55-2.75.37-1.1.56-2.35.56-3.76s-.19-2.67-.56-3.76c-.37-1.1-.89-2.02-1.55-2.77-.66-.75-1.43-1.32-2.31-1.71-.88-.39-1.82-.59-2.8-.59s-1.92.2-2.8.59c-.88.39-1.65.96-2.31,1.71-.66.75-1.17,1.68-1.55,2.77-.37,1.1-.56,2.35-.56,3.76s.19,2.67.56,3.76Z"/>
      <path class="cls-2" d="m235.74,210.13v4.91h.1c.94-1.89,2.08-3.29,3.43-4.19s3.06-1.32,5.13-1.26v4.06c-1.53,0-2.83.21-3.91.63-1.08.42-1.95,1.04-2.61,1.84-.66.81-1.14,1.79-1.44,2.95s-.45,2.48-.45,3.98v10.35h-3.81v-23.27h3.56Z"/>
      <path class="cls-2" d="m250.87,210.13v3.42h.1c1.74-2.64,4.23-3.96,7.5-3.96,1.44,0,2.74.3,3.9.9,1.17.6,1.99,1.62,2.47,3.06.78-1.26,1.8-2.24,3.08-2.92,1.27-.69,2.67-1.04,4.2-1.04,1.17,0,2.22.13,3.17.38.94.26,1.75.65,2.43,1.19.67.54,1.2,1.24,1.57,2.09.37.86.56,1.88.56,3.08v17.06h-3.81v-15.26c0-.72-.06-1.39-.18-2.03-.12-.63-.34-1.18-.67-1.64-.33-.46-.79-.83-1.37-1.1-.58-.27-1.34-.41-2.27-.41-1.89,0-3.37.54-4.45,1.62-1.08,1.08-1.62,2.52-1.62,4.32v14.5h-3.81v-15.26c0-.75-.07-1.44-.2-2.07-.13-.63-.37-1.18-.7-1.64-.33-.46-.77-.83-1.33-1.08-.55-.25-1.27-.38-2.13-.38-1.11,0-2.06.23-2.85.68-.79.45-1.44.99-1.93,1.62-.49.63-.85,1.28-1.08,1.96-.22.68-.34,1.24-.34,1.69v14.5h-3.81v-23.27h3.59Z"/>
      <path class="cls-2" d="m303.5,233.9c-.98,0-1.76-.28-2.34-.83-.58-.55-.87-1.46-.87-2.72-1.05,1.26-2.27,2.17-3.67,2.72-1.39.55-2.9.83-4.52.83-1.05,0-2.04-.11-2.97-.34s-1.75-.6-2.45-1.12-1.26-1.2-1.66-2.03c-.4-.83-.61-1.82-.61-2.99,0-1.32.22-2.4.67-3.24.45-.84,1.04-1.52,1.78-2.05.73-.53,1.57-.92,2.52-1.19.94-.27,1.91-.5,2.9-.68,1.05-.21,2.04-.37,2.99-.47.94-.11,1.78-.25,2.49-.45.72-.2,1.29-.48,1.71-.86.42-.37.63-.92.63-1.64,0-.84-.16-1.52-.47-2.03-.32-.51-.72-.9-1.22-1.17-.5-.27-1.05-.45-1.67-.54-.62-.09-1.22-.14-1.82-.14-1.62,0-2.98.31-4.06.93-1.08.62-1.67,1.79-1.76,3.51h-3.81c.06-1.45.36-2.66.9-3.66.54-.99,1.26-1.8,2.16-2.42.9-.62,1.93-1.06,3.1-1.33,1.17-.27,2.4-.41,3.69-.41,1.05,0,2.09.08,3.12.23s1.97.46,2.81.92c.84.47,1.51,1.12,2.02,1.96.51.84.76,1.94.76,3.29v11.99c0,.9.05,1.56.16,1.98.1.42.46.63,1.06.63.33,0,.72-.07,1.17-.22v2.96c-.66.39-1.57.58-2.74.58Zm-5.34-11.71c-.78.17-1.59.3-2.44.41-.85.11-1.71.23-2.58.36-.87.13-1.64.35-2.33.65s-1.25.73-1.68,1.28c-.43.55-.65,1.31-.65,2.27,0,.63.13,1.16.38,1.6.25.44.58.79.99,1.06.4.27.88.46,1.43.58.55.12,1.11.18,1.68.18,1.25,0,2.33-.17,3.23-.52.9-.34,1.63-.78,2.2-1.3.57-.53.99-1.09,1.26-1.71.27-.62.4-1.19.4-1.73v-3.92c-.48.36-1.11.62-1.88.79Z"/>
      <path class="cls-2" d="m319.77,210.15v3.37h-4.62v14.43c0,.45.04.81.11,1.08.07.27.22.48.43.63.21.15.5.25.87.29.37.04.86.07,1.46.07h1.75v3.37h-2.92c-.99,0-1.84-.07-2.54-.2-.71-.13-1.27-.38-1.71-.74-.44-.36-.76-.87-.97-1.53-.21-.66-.31-1.53-.31-2.61v-14.79s-3.95,0-3.95,0v-3.37h3.96v-7h3.81v7h4.62Z"/>
      <path class="cls-2" d="m324.26,205.97v-4.69h3.81v4.69h-3.81Zm3.81,4.17v23.26h-3.81v-23.26h3.81Z"/>
      <path class="cls-2" d="m347.93,214.18c-.96-.81-2.25-1.21-3.87-1.21-1.38,0-2.54.26-3.47.77-.93.51-1.67,1.19-2.23,2.03-.55.84-.95,1.81-1.19,2.91-.24,1.1-.36,2.23-.36,3.4,0,1.08.13,2.13.38,3.16.25,1.02.65,1.93,1.19,2.73.54.8,1.25,1.44,2.12,1.92.87.48,1.91.72,3.11.72,1.89,0,3.37-.5,4.43-1.49,1.06-.99,1.72-2.39,1.96-4.2h3.91c-.42,2.88-1.49,5.1-3.22,6.66-1.72,1.56-4.07,2.34-7.04,2.34-1.77,0-3.34-.29-4.7-.86-1.37-.57-2.51-1.38-3.43-2.43-.92-1.05-1.61-2.3-2.08-3.76-.47-1.46-.7-3.05-.7-4.79s.23-3.37.68-4.88c.45-1.52,1.13-2.84,2.05-3.96.92-1.12,2.07-2.01,3.45-2.66,1.38-.64,2.98-.97,4.81-.97,1.32,0,2.56.16,3.71.47,1.15.31,2.18.8,3.06,1.46.88.66,1.61,1.49,2.18,2.49s.93,2.2,1.08,3.57h-3.96c-.3-1.47-.93-2.6-1.89-3.41Z"/>
      <path class="cls-2" d="m361.06,228.23c.36.58.84,1.05,1.42,1.39.59.35,1.25.59,1.99.74s1.5.22,2.28.22c.6,0,1.24-.04,1.9-.13.66-.09,1.27-.26,1.83-.5.56-.24,1.02-.59,1.38-1.06.36-.47.54-1.06.54-1.78,0-.99-.37-1.74-1.13-2.25-.75-.51-1.69-.92-2.82-1.24-1.13-.32-2.35-.6-3.68-.86-1.32-.26-2.55-.62-3.68-1.08-1.13-.46-2.07-1.12-2.82-1.96-.75-.84-1.13-2.01-1.13-3.52,0-1.17.26-2.18.79-3.02.53-.84,1.2-1.52,2.03-2.05.83-.53,1.76-.92,2.79-1.17,1.04-.25,2.06-.38,3.09-.38,1.32,0,2.54.11,3.65.34,1.11.23,2.1.62,2.95,1.17.86.56,1.54,1.31,2.05,2.26.51.95.81,2.13.9,3.54h-3.81c-.06-.75-.26-1.38-.59-1.88-.33-.5-.75-.9-1.26-1.2-.51-.3-1.07-.52-1.69-.66-.62-.14-1.24-.2-1.87-.2-.57,0-1.15.05-1.74.14-.59.09-1.12.25-1.6.47-.48.22-.87.53-1.17.9s-.45.86-.45,1.46c0,.66.23,1.21.7,1.64.47.44,1.06.8,1.78,1.08.72.29,1.53.53,2.44.72.9.2,1.8.4,2.71.61.96.21,1.9.47,2.82.77.92.3,1.73.7,2.44,1.19.71.5,1.28,1.12,1.71,1.87.44.75.65,1.68.65,2.79,0,1.41-.29,2.58-.88,3.51-.59.93-1.36,1.68-2.3,2.25-.95.57-2.02.97-3.21,1.19-1.19.22-2.37.34-3.54.34-1.29,0-2.53-.13-3.7-.4-1.17-.27-2.21-.71-3.12-1.32-.9-.61-1.62-1.42-2.17-2.42-.54-1-.84-2.22-.9-3.66h3.81c.03.84.23,1.55.59,2.14Z"/>
    </g>
  </g>
</svg>