<?xml version="1.0" encoding="UTF-8"?>
<svg id="Calque_1" data-name="Calque 1" xmlns="http://www.w3.org/2000/svg" viewBox="0 0 340.67 67.96">
  <defs>
    <style>
      .cls-1 {
        fill: #fff;
      }

      .cls-2 {
        fill: red;
      }

      .cls-3 {
        fill: #ace6b4;
      }

      .cls-4 {
        fill: #2db350;
      }

      .cls-5 {
        fill: #2e5ea7;
      }

      .cls-6 {
        fill: #307cff;
      }

      .cls-7 {
        fill: #79cff2;
      }
    </style>
  </defs>
  <circle class="cls-7" cx="45.52" cy="46.75" r="1.92"/>
  <circle cx="45.52" cy="32.93" r="1.92"/>
  <circle class="cls-4" cx="45.52" cy="19.1" r="5.28"/>
  <circle class="cls-6" cx="31.69" cy="46.75" r="4.04"/>
  <path class="cls-5" d="m23.78,32.93c0-4.37,3.54-7.91,7.91-7.91,4.37,0,7.91,3.54,7.91,7.91s-3.54,7.91-7.91,7.91c-4.37,0-7.91-3.54-7.91-7.91Z"/>
  <circle class="cls-4" cx="31.69" cy="5.28" r="5.28"/>
  <circle class="cls-2" cx="17.86" cy="46.75" r="4.04"/>
  <path class="cls-2" d="m13.83,32.93c0-2.23,1.81-4.04,4.04-4.04,2.23,0,4.04,1.81,4.04,4.04,0,2.23-1.81,4.04-4.04,4.04-2.23,0-4.04-1.81-4.04-4.04Z"/>
  <path class="cls-3" d="m41.48,5.28c0-2.23,1.81-4.04,4.04-4.04,2.23,0,4.04,1.81,4.04,4.04,0,2.23-1.81,4.04-4.04,4.04-2.23,0-4.04-1.81-4.04-4.04Z"/>
  <circle class="cls-5" cx="17.86" cy="19.1" r="7.91"/>
  <path d="m15.94,5.28c0-1.06.86-1.92,1.92-1.92,1.06,0,1.92.86,1.92,1.92,0,1.06-.86,1.92-1.92,1.92-1.06,0-1.92-.86-1.92-1.92Z"/>
  <circle class="cls-7" cx="4.04" cy="46.75" r="1.92"/>
  <path class="cls-2" d="m0,32.93c0-2.23,1.81-4.04,4.04-4.04,2.23,0,4.04,1.81,4.04,4.04,0,2.23-1.81,4.04-4.04,4.04-2.23,0-4.04-1.81-4.04-4.04Z"/>
  <circle class="cls-6" cx="4.04" cy="19.1" r="4.04"/>
  <circle class="cls-7" cx="4.04" cy="5.28" r="1.92"/>
  <path class="cls-5" d="m23.78,19.1c0-4.37,3.54-7.91,7.91-7.91,4.37,0,7.91,3.54,7.91,7.91s-3.54,7.91-7.91,7.91c-4.37,0-7.91-3.54-7.91-7.91Z"/>
  <path d="m94.59,32.88c-.17,0-.31.07-.42.2-.11.14-.16.32-.12.5,1,4.99,4.98,7.74,11.2,7.74s10.17-3.43,10.17-8.35-2.89-7.47-9.36-8.98c-4.21-.99-6.81-2.32-6.81-5.88,0-2.88,2.12-4.67,5.53-4.67,3.22,0,5.39,1.69,6.11,4.75.11.46.52.79.99.79h2.46c.23,0,.37-.13.43-.2.11-.13.15-.31.12-.48-1.02-4.89-4.51-7.58-9.84-7.58-4.9,0-9.86,2.81-9.86,8.18,0,4.36,2.64,6.78,9.11,8.32,5.09,1.19,7.07,2.99,7.07,6.41,0,2.93-2.51,4.97-6.1,4.97s-6.06-1.84-7.11-5.06c-.13-.39-.52-.66-.96-.66h-2.59Z"/>
  <g>
    <path d="m66.72,60.5l-1.31,4.01h-1.49l4.02-11.33h1.88l3.86,11.33h-1.51l-1.33-4.01h-4.12Zm3.75-1.15l-1.62-5.06-1.74,5.06h3.36Z"/>
    <path d="m82.39,64.51h-1.39v-1.48l-.54,1.02c-.73.54-1.36.69-2.24.69-1.78,0-2.82-1.02-3.02-2.22-.06-.44-.08-.79-.08-1.49v-5.22h1.4v4.96c0,.28.02.75.06,1.2.13.99.83,1.66,2,1.66,1.35,0,2.42-1.02,2.42-3.99v-3.83h1.39v8.7Z"/>
    <path d="m86.77,61.96c0,.3,0,.44.02.67.06.84.41,1.02,1.49.89v1.03c-.41.07-.79.08-1.18.08-1.07,0-1.62-.44-1.7-1.53-.02-.23-.02-.59-.02-1.08v-5.07h-1.15v-1.08h1.15v-2.02h1.4v2.02h1.61v1.08h-1.61v5.01Z"/>
    <path d="m98.03,60.16c0,2.45-1.35,4.58-4.27,4.58s-4.27-2.13-4.27-4.58,1.35-4.58,4.27-4.58,4.27,2.12,4.27,4.58Zm-1.52,0c0-2.05-1.01-3.5-2.74-3.5s-2.74,1.44-2.74,3.5,1.01,3.5,2.74,3.5,2.74-1.46,2.74-3.5Z"/>
    <path d="m111.48,59.19v5.32h-1.4v-4.66c0-.77-.02-1.25-.06-1.69-.13-.99-.75-1.46-1.72-1.46-1.09,0-1.88.87-1.88,3.51v4.3h-1.4v-4.66c0-.77-.02-1.25-.06-1.69-.13-.99-.75-1.46-1.72-1.46-1.09,0-1.88.87-1.88,3.51v4.3h-1.4v-8.7h1.4v1.26l.55-.99c.44-.36,1.05-.51,1.82-.51,1.31,0,2.16.67,2.48,1.62l.76-1.12c.44-.36,1.05-.51,1.82-.51,1.54,0,2.42.92,2.61,2.12.06.44.08.79.08,1.49Z"/>
    <path d="m118.86,63.26l-.47.94c-.58.41-1.33.54-2.16.54-1.56,0-2.77-.87-2.77-2.48,0-1.97,1.46-2.99,4.83-2.99h.55v-.23c0-.38,0-.72-.03-1.05-.06-.8-.52-1.33-1.67-1.33s-1.75.64-1.85,1.84h-1.46c.13-1.86,1.41-2.92,3.31-2.92,2.04,0,2.9.87,3.05,2.3.03.34.05.77.05,1.15v3.27c0,.66.03,1.25.16,2.22h-1.4l-.15-1.25Zm-.02-2.05v-.89c-2.37-.18-3.86.33-3.86,1.82,0,1.05.67,1.51,1.72,1.51,1.3,0,2.14-.87,2.14-2.45Z"/>
    <path d="m124.61,61.96c0,.3,0,.44.02.67.06.84.41,1.02,1.49.89v1.03c-.41.07-.79.08-1.18.08-1.07,0-1.62-.44-1.7-1.53-.02-.23-.02-.59-.02-1.08v-5.07h-1.15v-1.08h1.15v-2.02h1.4v2.02h1.61v1.08h-1.61v5.01Z"/>
    <path d="m135.07,60.58h-6.23c.13,2.3,1.2,3.07,2.47,3.07,1.12,0,2.03-.71,2.22-1.95h1.46c-.34,2.1-1.98,3.04-3.75,3.04-2.24,0-3.91-1.48-3.91-4.55,0-2.82,1.74-4.61,4.09-4.61s3.68,1.79,3.68,4.33c0,.13,0,.36-.03.67Zm-6.21-1.08h4.83c-.13-1.81-.89-2.84-2.3-2.84s-2.37.98-2.53,2.84Z"/>
    <path d="m144.71,64.51h-1.39v-1.4l-.65.94c-.49.41-1.4.69-2.27.69-2.51,0-3.91-1.9-3.91-4.45,0-3.22,1.98-4.71,4.2-4.71.71,0,1.62.21,2.06.57l.57.85v-4.56h1.39v12.07Zm-1.39-4.27v-.48c0-2.25-1.4-3.1-2.63-3.1-1.51,0-2.68,1.18-2.68,3.46,0,1.97.88,3.53,2.6,3.53,1.43,0,2.71-.92,2.71-3.42Z"/>
    <path d="m158.81,56.31h-1.49c-.13-1.43-.96-2.25-2.37-2.25-1.18,0-2.12.56-2.12,1.74s.7,1.76,2.4,2.15c2.47.57,3.7,1.59,3.7,3.51s-1.69,3.27-3.84,3.27c-2.47,0-4.02-1.26-4.27-3.45h1.49c.32,1.49,1.35,2.33,2.81,2.33,1.28,0,2.32-.71,2.32-1.89,0-1.38-.78-2-2.74-2.46-1.98-.46-3.36-1.26-3.36-3.14s1.67-3.19,3.73-3.19c2.32,0,3.54,1.43,3.75,3.37Z"/>
    <path d="m162.49,53.85c0,.51-.39.9-.89.9s-.89-.39-.89-.9.39-.9.89-.9.89.39.89.9Zm-1.59,10.66v-8.7h1.4v8.7h-1.4Z"/>
    <path d="m172.27,59.61v4.89h-1.4v-4.79c0-.44,0-.8-.03-1.25-.08-1.02-.63-1.77-1.96-1.77s-2.48,1.02-2.48,3.99v3.83h-1.4v-8.7h1.4v1.49l.54-1c.73-.58,1.36-.72,2.24-.72,1.88,0,2.94,1.02,3.07,2.54.03.44.03.79.03,1.49Z"/>
    <path d="m182.38,62.37c0,.54,0,1.21-.02,1.69-.08,2.54-1.61,3.89-4.09,3.89s-3.67-1.04-3.84-2.87l-.02-.16h1.41l.02.15c.11,1.07.96,1.81,2.43,1.81,1.7,0,2.63-.99,2.69-2.66.02-.41.02-.69.02-.95v-.15l-.65.94c-.49.41-1.4.69-2.27.69-2.51,0-3.91-1.9-3.91-4.45,0-3.22,1.98-4.71,4.2-4.71.71,0,1.62.21,2.06.57l.57.85v-1.2h1.39v6.57Zm-1.39-2.13v-.48c0-2.25-1.4-3.1-2.63-3.1-1.51,0-2.68,1.18-2.68,3.46,0,1.97.88,3.53,2.6,3.53,1.43,0,2.71-.92,2.71-3.42Z"/>
    <path d="m186.42,62.01c0,.26,0,.54.02.82.03.56.29.74,1.05.66v1.02c-.31.05-.67.07-.99.07-.81,0-1.41-.26-1.46-1.36-.02-.3-.02-.67-.02-1.15v-9.62h1.4v9.57Z"/>
    <path d="m196.37,60.58h-6.23c.13,2.3,1.2,3.07,2.47,3.07,1.12,0,2.03-.71,2.22-1.95h1.46c-.34,2.1-1.98,3.04-3.75,3.04-2.24,0-3.91-1.48-3.91-4.55,0-2.82,1.74-4.61,4.09-4.61s3.68,1.79,3.68,4.33c0,.13,0,.36-.03.67Zm-6.21-1.08h4.83c-.13-1.81-.89-2.84-2.3-2.84s-2.37.98-2.53,2.84Z"/>
    <path d="m197.81,60.32v-.92h3.41v.92h-3.41Z"/>
    <path d="m210.14,58.73h-1.46c-.31-1.4-1.05-2.07-2.21-2.07-1.35,0-2.48,1.07-2.48,3.42,0,2.53,1.1,3.58,2.38,3.58,1.14,0,1.93-.66,2.22-1.92h1.46c-.42,2.02-1.85,3-3.76,3-2.17,0-3.83-1.38-3.83-4.56,0-2.94,1.88-4.6,4.04-4.6s3.37,1.25,3.63,3.15Z"/>
    <path d="m219.03,60.58h-6.23c.13,2.3,1.2,3.07,2.47,3.07,1.12,0,2.03-.71,2.22-1.95h1.46c-.34,2.1-1.98,3.04-3.75,3.04-2.24,0-3.91-1.48-3.91-4.55,0-2.82,1.74-4.61,4.09-4.61s3.68,1.79,3.68,4.33c0,.13,0,.36-.03.67Zm-6.21-1.08h4.83c-.13-1.81-.89-2.84-2.3-2.84s-2.37.98-2.53,2.84Z"/>
    <path d="m222.49,62.01c0,.26,0,.54.02.82.03.56.29.74,1.05.66v1.02c-.31.05-.67.07-.99.07-.81,0-1.41-.26-1.46-1.36-.02-.3-.02-.67-.02-1.15v-9.62h1.39v9.57Z"/>
    <path d="m226.74,62.01c0,.26,0,.54.02.82.03.56.29.74,1.05.66v1.02c-.31.05-.67.07-.99.07-.81,0-1.41-.26-1.46-1.36-.02-.3-.02-.67-.02-1.15v-9.62h1.39v9.57Z"/>
    <path d="m235.49,60.5l-1.31,4.01h-1.49l4.02-11.33h1.88l3.86,11.33h-1.51l-1.33-4.01h-4.12Zm3.75-1.15l-1.62-5.06-1.74,5.06h3.36Z"/>
    <path d="m251.29,59.61v4.89h-1.39v-4.79c0-.44,0-.8-.03-1.25-.08-1.02-.63-1.77-1.96-1.77s-2.48,1.02-2.48,3.99v3.83h-1.39v-8.7h1.39v1.49l.54-1c.73-.58,1.36-.72,2.24-.72,1.88,0,2.94,1.02,3.07,2.54.03.44.03.79.03,1.49Z"/>
    <path d="m258.67,63.26l-.47.94c-.58.41-1.33.54-2.16.54-1.56,0-2.77-.87-2.77-2.48,0-1.97,1.46-2.99,4.83-2.99h.55v-.23c0-.38,0-.72-.03-1.05-.06-.8-.52-1.33-1.67-1.33s-1.75.64-1.85,1.84h-1.46c.13-1.86,1.41-2.92,3.31-2.92,2.04,0,2.9.87,3.05,2.3.03.34.05.77.05,1.15v3.27c0,.66.03,1.25.16,2.22h-1.4l-.15-1.25Zm-.02-2.05v-.89c-2.37-.18-3.86.33-3.86,1.82,0,1.05.67,1.51,1.72,1.51,1.3,0,2.14-.87,2.14-2.45Z"/>
    <path d="m264.07,62.01c0,.26,0,.54.02.82.03.56.29.74,1.05.66v1.02c-.31.05-.67.07-.99.07-.81,0-1.41-.26-1.46-1.36-.02-.3-.02-.67-.02-1.15v-9.62h1.39v9.57Z"/>
    <path d="m270.48,65.25c-.7,1.84-1.62,2.71-3.02,2.71-.31,0-.5,0-.71-.03v-1.15c.21.02.36.02.5.02.86,0,1.43-.38,1.87-1.53l.11-.31-3.42-9.15h1.57l2.56,7.65,2.55-7.65h1.52l-3.54,9.44Z"/>
    <path d="m281.22,58.28h-1.46c-.19-1.02-.81-1.62-1.82-1.62s-1.43.54-1.43,1.3c0,.87.71,1.21,1.88,1.53,1.98.53,2.92,1.31,2.92,2.79,0,1.64-1.38,2.46-3.2,2.46s-3.11-.82-3.37-2.79h1.46c.23,1.26,1.02,1.71,2.01,1.71.92,0,1.67-.43,1.67-1.26s-.58-1.28-2.03-1.67c-1.54-.43-2.77-1.07-2.77-2.59s1.2-2.54,2.97-2.54c1.93,0,2.98,1.12,3.16,2.71Z"/>
    <path d="m284.84,53.85c0,.51-.39.9-.89.9s-.89-.39-.89-.9.39-.9.89-.9.89.39.89.9Zm-1.59,10.66v-8.7h1.39v8.7h-1.39Z"/>
    <path d="m293.02,58.28h-1.46c-.19-1.02-.81-1.62-1.82-1.62s-1.43.54-1.43,1.3c0,.87.71,1.21,1.88,1.53,1.98.53,2.92,1.31,2.92,2.79,0,1.64-1.38,2.46-3.2,2.46s-3.11-.82-3.37-2.79h1.46c.23,1.26,1.02,1.71,2.01,1.71.92,0,1.67-.43,1.67-1.26s-.58-1.28-2.03-1.67c-1.54-.43-2.77-1.07-2.77-2.59s1.2-2.54,2.97-2.54c1.93,0,2.98,1.12,3.16,2.71Z"/>
    <path d="m307.05,56.53c0,1.92-1.28,3.07-2.9,3.28-.5.07-.89.07-1.46.07h-2.08v4.63h-1.39v-11.33h3.47c.57,0,.96,0,1.46.07,1.78.23,2.9,1.36,2.9,3.28Zm-1.49,0c0-1.31-.7-1.9-1.49-2.08-.31-.07-.75-.08-1.25-.08h-2.21v4.33h2.21c.5,0,.94-.02,1.25-.08.79-.18,1.49-.77,1.49-2.08Z"/>
    <path d="m316.56,60.16c0,2.45-1.35,4.58-4.27,4.58s-4.27-2.13-4.27-4.58,1.35-4.58,4.27-4.58,4.27,2.12,4.27,4.58Zm-1.52,0c0-2.05-1.01-3.5-2.74-3.5s-2.74,1.44-2.74,3.5,1,3.5,2.74,3.5,2.74-1.46,2.74-3.5Z"/>
    <path d="m322.45,55.72v1.07c-1.46-.1-2.56.77-2.56,2.76v4.96h-1.4v-8.7h1.4v1.36l.78-1.17c.36-.25.79-.39,1.2-.39.23,0,.42.03.58.11Z"/>
    <path d="m325.76,61.96c0,.3,0,.44.02.67.07.84.41,1.02,1.49.89v1.03c-.41.07-.79.08-1.18.08-1.07,0-1.62-.44-1.7-1.53-.02-.23-.02-.59-.02-1.08v-5.07h-1.15v-1.08h1.15v-2.02h1.4v2.02h1.61v1.08h-1.61v5.01Z"/>
    <path d="m334.19,63.26l-.47.94c-.58.41-1.33.54-2.16.54-1.56,0-2.77-.87-2.77-2.48,0-1.97,1.46-2.99,4.83-2.99h.55v-.23c0-.38,0-.72-.03-1.05-.06-.8-.52-1.33-1.67-1.33s-1.75.64-1.85,1.84h-1.46c.13-1.86,1.41-2.92,3.31-2.92,2.04,0,2.9.87,3.05,2.3.03.34.05.77.05,1.15v3.27c0,.66.03,1.25.16,2.22h-1.4l-.15-1.25Zm-.02-2.05v-.89c-2.37-.18-3.86.33-3.86,1.82,0,1.05.67,1.51,1.72,1.51,1.3,0,2.14-.87,2.14-2.45Z"/>
    <path d="m339.6,62.01c0,.26,0,.54.02.82.03.56.29.74,1.05.66v1.02c-.31.05-.67.07-.99.07-.81,0-1.41-.26-1.46-1.36-.02-.3-.02-.67-.02-1.15v-9.62h1.39v9.57Z"/>
  </g>
  <path d="m89.17,40.2l-9.68-28.04c-.17-.5-.64-.83-1.17-.83h-3.73c-.52,0-.99.33-1.17.82l-9.97,28.05c-.04.12-.02.24.05.35s.19.16.31.16h2.98c.32,0,.6-.2.69-.5l2.8-8.62c.18-.54.68-.91,1.25-.91h9.45c.57,0,1.07.37,1.25.91l2.8,8.62c.1.3.38.5.69.5h3.08c.12,0,.24-.06.31-.16s.09-.23.05-.34Zm-8.61-12.7c-.15.2-.38.32-.63.32h-7.32c-.25,0-.49-.12-.63-.32-.15-.2-.19-.47-.11-.7l3.82-11.43c.1-.29.37-.49.68-.49h0c.31,0,.59.21.68.5l3.62,11.42c.07.24.03.5-.12.7Z"/>
  <path d="m146.7,40.2l-9.76-28.26c-.13-.36-.47-.61-.86-.61h-4.2c-.38,0-.72.24-.85.6l-10.04,28.27c-.04.12-.02.24.05.35s.19.16.31.16h2.98c.32,0,.59-.2.69-.5l2.8-8.62c.18-.54.68-.91,1.25-.91h9.45c.57,0,1.07.37,1.25.91l2.8,8.62c.1.3.38.5.69.5h3.08c.12,0,.24-.06.31-.16s.09-.23.05-.35Zm-8.61-12.7c-.15.2-.38.32-.63.32h-7.32c-.25,0-.49-.12-.63-.33s-.19-.47-.11-.7l3.82-11.42c.1-.3.37-.49.68-.49h0c.31,0,.59.2.68.5l3.62,11.43c.07.24.03.5-.11.69Z"/>
  <path d="m167.33,11.5c-1.36-.17-2.42-.17-4.02-.17h-7.94c-.77,0-1.4.63-1.4,1.4v27.26c0,.39.32.71.71.71h2.38c.39,0,.71-.32.71-.71v-9.47c0-.99.8-1.79,1.79-1.79h3.74c1.6,0,2.67,0,4.03-.17,3.62-.48,7.49-2.97,7.49-8.53,0-4.8-2.73-7.91-7.49-8.54Zm-.76,14.11c-.76.13-1.75.19-3.14.19h-3.84c-1,0-1.82-.82-1.82-1.82v-7.89c0-1,.82-1.82,1.82-1.82h3.84c1.4,0,2.39.06,3.13.18,2.66.5,4.19,2.54,4.19,5.58s-1.52,5.08-4.18,5.58Z"/>
  <path class="cls-1" d="m197.65,5.28h-8.93c-1.76,0-3.21,1.44-3.21,3.21v8.93c0,1.76,1.44,3.21,3.21,3.21h8.93c1.76,0,3.21-1.44,3.21-3.21v-8.93c0-1.76-1.44-3.21-3.21-3.21Z"/>
  <g>
    <path class="cls-2" d="m188.71,5.28c-1.76,0-3.21,1.44-3.21,3.21v4.69l3.56-1.42c.03-.67.49-1.22,1.11-1.38l.82-5.1h-2.28Z"/>
    <path class="cls-2" d="m197.65,5.28h-5.43l-.85,5.29c.41.27.68.73.68,1.25,0,.03,0,.06,0,.08l4.58,2.57c.25-.2.57-.32.92-.32.83,0,1.49.67,1.49,1.49s-.67,1.49-1.49,1.49-1.49-.67-1.49-1.49c0-.03,0-.07,0-.1l-4.57-2.56c-.26.21-.58.33-.93.33-.41,0-.77-.16-1.04-.42l-4,1.6v2.93c0,1.76,1.44,3.21,3.21,3.21h8.93c1.76,0,3.21-1.44,3.21-3.21v-8.93c0-1.76-1.44-3.21-3.21-3.21Z"/>
  </g>
</svg>